<svg version="1.1" id="svgLogo" viewBox="0 0 99.211 99.211">
    <path stroke='#EDEDF4' stroke-widht='1' fill-rule="evenodd" clip-rule="evenodd" fill="#231F20" d="M49.379,56.285c-4.418-0.062-8.41-1.894-11.293-4.816
        s-4.66-6.934-4.66-11.359c0-1.446,0.191-2.848,0.551-4.188c0.367-1.379,0.914-2.683,1.613-3.894c0.035-0.067,0.164-0.278,0.27-0.45
        l0.055-0.089l0.52,1.214c-0.609,1.09-1.094,2.262-1.422,3.497c-0.336,1.246-0.512,2.554-0.512,3.91c0,4.136,1.66,7.883,4.348,10.609
        c2.629,2.664,6.242,4.356,10.246,4.488c0.098,0.004,0.465,0.043,0.563,0.043L49.379,56.285z M49.5,38.648l16.23-0.016l0.023,0.512
        c0.008,0.148,0.016,0.312,0.02,0.492c0.004,0.203,0.008,0.363,0.008,0.473c0,3.816-1.32,7.32-3.531,10.09
        c-2.539,3.179-5.563,4.863-9.477,5.746l0.555-1.192c3.238-0.82,6.059-2.687,8.086-5.222c2.063-2.582,3.293-5.856,3.293-9.422
        c0-0.172,0-0.309,0-0.407L49.5,39.715V38.648z M38.078,28.762c1.488-1.516,3.277-2.738,5.262-3.57
        c1.93-0.813,4.043-1.258,6.266-1.258h0.059v1.07h-0.059c-2.074,0-4.051,0.418-5.848,1.176c-1.871,0.785-3.551,1.934-4.945,3.359
        c-0.02,0.024-0.141,0.141-0.273,0.274l-0.008,0.008L38.078,28.762z"/>
    <path stroke='#000000' stroke-widht='1' fill-rule="evenodd" clip-rule="evenodd" fill="#231F20" d="M58.969,38.418l7.566-17.645l0.984,0.418l-7.387,17.226H58.969z
            M50.461,58.27l0.004-0.008l7.078-16.535h1.164l-9.105,21.266l-0.586-1.372C49.5,60.496,49.977,59.403,50.461,58.27z M48,56.547
        l1.367,3.18l-0.59,1.344l-2.027-4.735L48,56.547z M32.676,20.883l13.777,32.09l-0.074,0.031l-1.203-0.293L31.691,21.305
        L32.676,20.883z"/>
    <path fill-rule="evenodd" clip-rule="evenodd" fill="#231F20" d="M80.824,70.36h0.641c0.012,0.269,0.078,0.484,0.203,0.636
        c0.18,0.223,0.406,0.332,0.676,0.332c0.223,0,0.414-0.082,0.578-0.238c0.176-0.168,0.262-0.375,0.262-0.613
        c0-0.215-0.07-0.391-0.215-0.527c-0.141-0.137-0.379-0.262-0.719-0.375c-0.414-0.141-0.711-0.293-0.891-0.454
        c-0.242-0.222-0.363-0.511-0.363-0.855c0-0.375,0.129-0.695,0.395-0.957c0.262-0.262,0.582-0.395,0.961-0.395
        c0.359,0,0.668,0.121,0.922,0.368c0.25,0.246,0.387,0.55,0.406,0.918h-0.652c-0.016-0.223-0.09-0.403-0.223-0.543
        c-0.121-0.129-0.285-0.196-0.484-0.196c-0.184,0-0.344,0.071-0.48,0.207c-0.152,0.149-0.23,0.317-0.23,0.5
        c0,0.219,0.094,0.399,0.285,0.543c0.098,0.071,0.281,0.153,0.555,0.242c0.438,0.145,0.758,0.309,0.957,0.485
        c0.258,0.23,0.391,0.535,0.391,0.906c0,0.215-0.039,0.422-0.113,0.625c-0.078,0.199-0.18,0.367-0.313,0.496
        c-0.27,0.274-0.625,0.41-1.066,0.41c-0.434,0-0.789-0.14-1.063-0.422C80.965,71.172,80.824,70.805,80.824,70.36z M77.5,67.461
        c-0.52,0-0.973,0.192-1.359,0.574c-0.375,0.379-0.566,0.821-0.566,1.329c0,0.535,0.184,0.996,0.543,1.371
        c0.176,0.183,0.387,0.328,0.633,0.433c0.25,0.105,0.5,0.16,0.754,0.16c0.512,0,0.949-0.191,1.32-0.574
        c0.359-0.375,0.539-0.824,0.539-1.355c0-0.531-0.176-0.985-0.535-1.36C78.465,67.664,78.023,67.473,77.5,67.461z M79.969,67.032
        v4.726h-0.605V70.93c-0.461,0.629-1.082,0.945-1.859,0.945c-0.465,0-0.906-0.121-1.324-0.359c-0.398-0.231-0.703-0.555-0.922-0.969
        c-0.199-0.375-0.297-0.762-0.297-1.156c0-0.309,0.059-0.613,0.18-0.914c0.117-0.301,0.285-0.563,0.496-0.785
        c0.238-0.254,0.527-0.449,0.859-0.586c0.32-0.125,0.66-0.192,1.012-0.192c0.387,0,0.738,0.082,1.055,0.243
        c0.316,0.164,0.582,0.398,0.801,0.711v-0.836H79.969z M71.523,67.461c-0.477,0-0.891,0.176-1.246,0.524
        c-0.379,0.375-0.57,0.828-0.57,1.359c0,0.574,0.184,1.051,0.547,1.426c0.359,0.371,0.801,0.558,1.313,0.558
        c0.555,0,1.008-0.214,1.363-0.648c0.313-0.383,0.469-0.82,0.469-1.305c0-0.25-0.047-0.5-0.148-0.738
        c-0.098-0.242-0.238-0.449-0.41-0.617C72.473,67.653,72.035,67.469,71.523,67.461z M74.004,67.032v4.156
        c0,0.39-0.031,0.688-0.09,0.894c-0.059,0.207-0.176,0.422-0.355,0.641c-0.223,0.277-0.5,0.488-0.836,0.641
        c-0.375,0.164-0.75,0.246-1.129,0.246c-0.34,0-0.668-0.067-0.988-0.207c-0.32-0.137-0.598-0.332-0.832-0.578
        c-0.219-0.239-0.391-0.551-0.508-0.942h0.621c0.16,0.293,0.32,0.52,0.488,0.688c0.148,0.152,0.336,0.273,0.563,0.359
        c0.227,0.09,0.461,0.133,0.707,0.133c0.34,0,0.652-0.078,0.93-0.238c0.281-0.157,0.492-0.372,0.633-0.645
        c0.129-0.254,0.191-0.531,0.191-0.832v-0.52c-0.141,0.313-0.375,0.563-0.707,0.75c-0.332,0.2-0.711,0.297-1.133,0.297
        c-0.418,0-0.82-0.109-1.215-0.332c-0.445-0.25-0.781-0.597-1.004-1.039c-0.164-0.332-0.246-0.695-0.246-1.086
        c0-0.695,0.238-1.281,0.715-1.77c0.48-0.489,1.051-0.735,1.703-0.735c0.395,0,0.754,0.082,1.078,0.25s0.594,0.407,0.809,0.715
        v-0.847H74.004z M66.875,71.758v-4.726h0.605v0.675c0.238-0.5,0.699-0.761,1.387-0.789v0.633c-0.203,0.02-0.367,0.055-0.488,0.102
        c-0.121,0.047-0.246,0.121-0.375,0.226c-0.18,0.153-0.309,0.309-0.379,0.477s-0.105,0.387-0.105,0.652v2.75H66.875z M63.16,67.461
        c-0.52,0-0.973,0.192-1.359,0.574c-0.379,0.379-0.566,0.821-0.566,1.329c0,0.535,0.18,0.996,0.543,1.371
        c0.172,0.183,0.387,0.328,0.633,0.433s0.5,0.16,0.754,0.16c0.508,0,0.945-0.191,1.316-0.574c0.363-0.375,0.543-0.824,0.543-1.355
        c0-0.531-0.18-0.985-0.535-1.36C64.125,67.664,63.684,67.473,63.16,67.461z M65.629,67.032v4.726h-0.605V70.93
        c-0.461,0.629-1.082,0.945-1.863,0.945c-0.465,0-0.906-0.121-1.324-0.359c-0.395-0.231-0.703-0.555-0.922-0.969
        c-0.195-0.375-0.293-0.762-0.293-1.156c0-0.309,0.059-0.613,0.176-0.914c0.121-0.301,0.285-0.563,0.496-0.785
        c0.242-0.254,0.527-0.449,0.863-0.586c0.32-0.125,0.66-0.192,1.012-0.192c0.387,0,0.738,0.082,1.055,0.243
        c0.316,0.164,0.582,0.398,0.801,0.711v-0.836H65.629z M57.5,71.758l-2.641-6.398h0.703l2.254,5.597l2.266-5.597h0.695l-2.656,6.398
        H57.5z M49.391,67.461c-0.52,0-0.977,0.192-1.359,0.574c-0.379,0.379-0.566,0.821-0.566,1.329c0,0.535,0.18,0.996,0.543,1.371
        c0.172,0.183,0.383,0.328,0.633,0.433c0.246,0.105,0.496,0.16,0.754,0.16c0.508,0,0.945-0.191,1.316-0.574
        c0.363-0.375,0.543-0.824,0.543-1.355c0-0.531-0.18-0.985-0.539-1.36S49.914,67.473,49.391,67.461z M51.859,67.032v4.726h-0.605
        V70.93c-0.461,0.629-1.082,0.945-1.863,0.945c-0.465,0-0.906-0.121-1.324-0.359c-0.395-0.231-0.703-0.555-0.922-0.969
        c-0.195-0.375-0.293-0.762-0.293-1.156c0-0.309,0.059-0.613,0.176-0.914c0.117-0.301,0.285-0.563,0.496-0.785
        c0.242-0.254,0.527-0.449,0.863-0.586c0.32-0.125,0.656-0.192,1.008-0.192c0.387,0,0.738,0.082,1.055,0.243
        c0.32,0.164,0.586,0.398,0.805,0.711v-0.836H51.859z M45.277,65.36h0.605v6.398h-0.605V65.36z M43.691,69.075
        c-0.105-0.43-0.277-0.774-0.52-1.032c-0.168-0.183-0.371-0.324-0.602-0.429c-0.234-0.102-0.469-0.153-0.707-0.153
        c-0.445,0-0.84,0.153-1.176,0.453c-0.34,0.301-0.551,0.688-0.637,1.161H43.691z M44.328,69.621h-4.289
        c0.016,0.356,0.145,0.688,0.387,0.993c0.18,0.226,0.391,0.398,0.645,0.527c0.25,0.125,0.512,0.187,0.785,0.187
        c0.355,0,0.691-0.105,1.008-0.316c0.313-0.211,0.535-0.477,0.66-0.797h0.664c-0.137,0.395-0.367,0.735-0.699,1.028
        c-0.469,0.421-1.012,0.632-1.625,0.632c-0.691,0-1.281-0.254-1.77-0.757c-0.465-0.481-0.695-1.051-0.695-1.715
        c0-0.688,0.242-1.278,0.727-1.762c0.477-0.484,1.055-0.727,1.734-0.727c0.563,0,1.066,0.176,1.508,0.524
        c0.332,0.265,0.574,0.566,0.719,0.898S44.313,69.094,44.328,69.621z M37.836,65.36h0.605v1.086h-0.605V65.36z M37.836,67.032h0.605
        v4.726h-0.605V67.032z M35.102,71.758v-4.726h0.605v0.675c0.238-0.5,0.699-0.761,1.387-0.789v0.633
        c-0.203,0.02-0.367,0.055-0.488,0.102c-0.121,0.047-0.246,0.121-0.375,0.226c-0.18,0.153-0.309,0.309-0.379,0.477
        c-0.074,0.168-0.109,0.387-0.109,0.652v2.75H35.102z M31.641,67.461c-0.508,0-0.945,0.172-1.313,0.516
        c-0.395,0.367-0.59,0.828-0.59,1.391c0,0.558,0.18,1.023,0.547,1.394c0.375,0.379,0.828,0.566,1.355,0.566
        c0.496,0,0.922-0.168,1.281-0.5c0.414-0.39,0.625-0.875,0.625-1.457c0-0.57-0.203-1.035-0.605-1.402
        C32.57,67.637,32.137,67.469,31.641,67.461z M29.141,71.758V65.36h0.645v2.484c0.207-0.301,0.465-0.531,0.773-0.691
        c0.313-0.157,0.664-0.239,1.051-0.239c0.672,0,1.254,0.223,1.75,0.668c0.531,0.489,0.801,1.086,0.801,1.797
        s-0.258,1.313-0.773,1.797c-0.234,0.223-0.508,0.395-0.813,0.516c-0.305,0.121-0.613,0.183-0.926,0.183
        c-0.402,0-0.77-0.082-1.102-0.246s-0.602-0.39-0.801-0.679v0.808H29.141z M25.426,67.461c-0.52,0-0.973,0.192-1.359,0.574
        c-0.375,0.379-0.566,0.821-0.566,1.329c0,0.535,0.184,0.996,0.543,1.371c0.176,0.183,0.387,0.328,0.633,0.433
        c0.25,0.105,0.5,0.16,0.754,0.16c0.512,0,0.949-0.191,1.32-0.574c0.359-0.375,0.539-0.824,0.539-1.355
        c0-0.531-0.176-0.985-0.535-1.36C26.391,67.664,25.949,67.473,25.426,67.461z M27.895,67.032v4.726h-0.605V70.93
        c-0.461,0.629-1.082,0.945-1.859,0.945c-0.465,0-0.906-0.121-1.324-0.359c-0.398-0.231-0.703-0.555-0.922-0.969
        c-0.199-0.375-0.297-0.762-0.297-1.156c0-0.309,0.059-0.613,0.18-0.914c0.117-0.301,0.285-0.563,0.496-0.785
        c0.238-0.254,0.527-0.449,0.859-0.586c0.324-0.125,0.66-0.192,1.012-0.192c0.387,0,0.738,0.082,1.055,0.243
        c0.316,0.164,0.582,0.398,0.801,0.711v-0.836H27.895z M17.887,68.813h4.344c-0.063,0.758-0.348,1.41-0.859,1.961
        c-0.324,0.347-0.707,0.617-1.148,0.808c-0.441,0.196-0.902,0.293-1.375,0.293c-0.863,0-1.621-0.285-2.273-0.847
        c-0.375-0.325-0.664-0.707-0.871-1.157c-0.195-0.429-0.293-0.867-0.293-1.316c0-0.656,0.195-1.266,0.578-1.828
        c0.336-0.492,0.766-0.867,1.293-1.129c0.477-0.234,0.996-0.352,1.551-0.352c0.793,0,1.492,0.235,2.098,0.704
        c0.473,0.363,0.777,0.738,0.91,1.117h-0.727c-0.176-0.317-0.449-0.59-0.809-0.821c-0.441-0.285-0.926-0.425-1.457-0.425
        c-0.523,0-1.012,0.136-1.461,0.41c-0.438,0.262-0.777,0.625-1.02,1.086c-0.207,0.398-0.313,0.812-0.313,1.242
        c0,0.531,0.156,1.031,0.465,1.504c0.27,0.418,0.641,0.734,1.105,0.953c0.402,0.187,0.816,0.281,1.25,0.281
        c0.727,0,1.359-0.258,1.895-0.777c0.352-0.348,0.582-0.723,0.688-1.129h-3.57V68.813z"/>
    <path fill-rule="evenodd" clip-rule="evenodd" fill="#231F20" d="M72.637,76.91l-0.512-1.359l-0.496,1.359H72.637z M74,78.371
        h-0.805l-0.316-0.836h-1.477l-0.305,0.836h-0.789l1.43-3.679h0.785L74,78.371z M69.328,77.016l0.719,0.219
        c-0.109,0.406-0.297,0.707-0.551,0.902c-0.258,0.199-0.582,0.297-0.977,0.297c-0.492,0-0.895-0.168-1.207-0.5
        c-0.316-0.336-0.473-0.793-0.473-1.371c0-0.613,0.16-1.09,0.477-1.43c0.313-0.336,0.73-0.508,1.246-0.508
        c0.449,0,0.816,0.133,1.098,0.403c0.168,0.156,0.293,0.382,0.375,0.675l-0.734,0.176c-0.043-0.191-0.133-0.34-0.273-0.449
        c-0.137-0.113-0.305-0.168-0.504-0.168c-0.27,0-0.492,0.098-0.664,0.293c-0.168,0.195-0.254,0.516-0.254,0.953
        c0,0.465,0.086,0.793,0.25,0.992c0.168,0.2,0.387,0.297,0.656,0.297c0.195,0,0.367-0.062,0.508-0.187
        C69.164,77.48,69.266,77.285,69.328,77.016z M65.52,74.692h0.746v3.679H65.52V74.692z M63.234,78.371v-3.058h-1.09v-0.621h2.918
        v0.621H63.98v3.058H63.234z M58.785,77.18l0.723-0.074c0.047,0.246,0.133,0.422,0.266,0.535c0.133,0.113,0.313,0.172,0.535,0.172
        c0.238,0,0.418-0.051,0.539-0.153c0.121-0.101,0.184-0.218,0.184-0.355c0-0.086-0.027-0.16-0.078-0.223
        c-0.051-0.058-0.137-0.113-0.266-0.156c-0.086-0.031-0.281-0.086-0.59-0.164c-0.398-0.098-0.676-0.219-0.836-0.363
        c-0.227-0.203-0.336-0.453-0.336-0.742c0-0.188,0.051-0.368,0.156-0.528c0.105-0.164,0.258-0.289,0.457-0.375
        s0.441-0.129,0.723-0.129c0.461,0,0.809,0.102,1.039,0.309c0.234,0.203,0.355,0.476,0.367,0.816l-0.746,0.028
        c-0.031-0.192-0.098-0.328-0.203-0.41c-0.102-0.083-0.258-0.125-0.465-0.125c-0.215,0-0.383,0.042-0.504,0.132
        c-0.078,0.059-0.117,0.133-0.117,0.23c0,0.086,0.035,0.16,0.109,0.222c0.094,0.082,0.32,0.165,0.684,0.25
        c0.359,0.082,0.625,0.172,0.797,0.262c0.172,0.094,0.309,0.219,0.406,0.375c0.098,0.16,0.148,0.356,0.148,0.586
        c0,0.211-0.059,0.41-0.176,0.594c-0.117,0.183-0.285,0.32-0.5,0.41c-0.211,0.09-0.48,0.133-0.797,0.133
        c-0.469,0-0.824-0.106-1.074-0.32C58.98,77.903,58.836,77.59,58.785,77.18z M57.223,76.91l-0.512-1.359l-0.496,1.359H57.223z
            M58.582,78.371h-0.801l-0.316-0.836h-1.477l-0.305,0.836h-0.789l1.43-3.679h0.785L58.582,78.371z M52.152,78.371v-3.648h0.746
        v3.027h1.844v0.621H52.152z M49.449,75.313v1.051h0.406c0.293,0,0.484-0.02,0.582-0.059c0.102-0.039,0.176-0.098,0.234-0.184
        c0.055-0.082,0.082-0.175,0.082-0.285c0-0.133-0.039-0.246-0.117-0.332s-0.176-0.144-0.297-0.164
        c-0.09-0.015-0.266-0.027-0.535-0.027H49.449z M48.703,78.371v-3.679h1.191c0.453,0,0.746,0.019,0.883,0.054
        c0.211,0.059,0.387,0.176,0.531,0.364c0.141,0.183,0.211,0.422,0.211,0.715c0,0.226-0.039,0.414-0.121,0.57
        c-0.082,0.152-0.188,0.273-0.313,0.363c-0.125,0.086-0.254,0.145-0.383,0.172c-0.18,0.035-0.434,0.055-0.77,0.055h-0.484v1.386
        H48.703z M45.711,76.91l-0.512-1.359l-0.496,1.359H45.711z M47.07,78.371H46.27l-0.316-0.836h-1.477l-0.305,0.836h-0.789l1.43-3.679
        h0.785L47.07,78.371z M41.828,78.371v-3.058h-1.09v-0.621h2.918v0.621H42.57v3.058H41.828z M37.379,77.18l0.723-0.074
        c0.043,0.246,0.133,0.422,0.266,0.535c0.133,0.113,0.309,0.172,0.535,0.172c0.238,0,0.418-0.051,0.539-0.153
        c0.121-0.101,0.18-0.218,0.18-0.355c0-0.086-0.023-0.16-0.074-0.223c-0.051-0.058-0.141-0.113-0.266-0.156
        c-0.086-0.031-0.285-0.086-0.594-0.164c-0.395-0.098-0.672-0.219-0.832-0.363c-0.227-0.203-0.34-0.453-0.34-0.742
        c0-0.188,0.055-0.368,0.16-0.528c0.105-0.164,0.258-0.289,0.457-0.375s0.438-0.129,0.723-0.129c0.461,0,0.805,0.102,1.039,0.309
        c0.23,0.203,0.352,0.476,0.367,0.816l-0.746,0.028c-0.031-0.192-0.102-0.328-0.203-0.41c-0.105-0.083-0.262-0.125-0.469-0.125
        c-0.211,0-0.379,0.042-0.5,0.132c-0.078,0.059-0.117,0.133-0.117,0.23c0,0.086,0.035,0.16,0.109,0.222
        c0.094,0.082,0.32,0.165,0.68,0.25c0.359,0.082,0.629,0.172,0.801,0.262c0.172,0.094,0.309,0.219,0.406,0.375
        c0.098,0.16,0.145,0.356,0.145,0.586c0,0.211-0.059,0.41-0.176,0.594c-0.117,0.183-0.281,0.32-0.496,0.41s-0.48,0.133-0.801,0.133
        c-0.465,0-0.82-0.106-1.07-0.32C37.574,77.903,37.426,77.59,37.379,77.18z M36.121,74.692h0.742v3.679h-0.742V74.692z
            M33.832,78.371v-3.058h-1.086v-0.621h2.918v0.621h-1.086v3.058H33.832z M30.043,76.25h0.547c0.355,0,0.578-0.015,0.668-0.047
        c0.09-0.027,0.16-0.082,0.207-0.156c0.051-0.074,0.078-0.164,0.078-0.273c0-0.125-0.035-0.227-0.102-0.301
        c-0.066-0.078-0.16-0.125-0.277-0.145c-0.063-0.007-0.242-0.015-0.543-0.015h-0.578V76.25z M29.297,78.371v-3.679h1.563
        c0.395,0,0.68,0.035,0.859,0.101c0.18,0.067,0.32,0.184,0.426,0.352c0.109,0.168,0.164,0.363,0.164,0.578
        c0,0.277-0.082,0.504-0.242,0.684c-0.164,0.179-0.406,0.293-0.727,0.339c0.16,0.094,0.293,0.2,0.395,0.309
        c0.105,0.113,0.246,0.313,0.422,0.598l0.449,0.718h-0.887l-0.535-0.804c-0.191-0.285-0.32-0.465-0.391-0.539
        c-0.07-0.075-0.148-0.125-0.227-0.153c-0.078-0.027-0.203-0.039-0.375-0.039h-0.148v1.535H29.297z M27.539,76.91l-0.512-1.359
        l-0.496,1.359H27.539z M28.898,78.371h-0.801l-0.316-0.836h-1.477L26,78.371h-0.789l1.43-3.679h0.785L28.898,78.371z"/>
    <path fill-rule="evenodd" clip-rule="evenodd" fill="#231F20" d="M82.734,16.477C74.254,8,62.543,2.754,49.605,2.754
        S24.953,8,16.477,16.477C8,24.957,2.754,36.668,2.754,49.605S8,74.258,16.477,82.735c8.477,8.476,20.191,13.722,33.129,13.722
        s24.648-5.246,33.129-13.722c8.477-8.477,13.719-20.192,13.719-33.129S91.211,24.957,82.734,16.477z M49.605,0
        C63.301,0,75.703,5.551,84.68,14.528c8.977,8.98,14.531,21.379,14.531,35.078c0,13.699-5.555,26.101-14.531,35.078
        c-8.977,8.976-21.379,14.527-35.074,14.527c-13.699,0-26.102-5.551-35.078-14.527C5.551,75.707,0,63.305,0,49.605
        c0-13.699,5.551-26.098,14.527-35.078C23.504,5.551,35.906,0,49.605,0z"/>
    <path fill-rule="evenodd" clip-rule="evenodd" fill="#231F20" d="M81.632,17.512C73.476,9.348,62.214,4.296,49.77,4.296
        c-12.443,0-23.709,5.052-31.861,13.216C9.757,25.68,4.709,36.96,4.709,49.42c0,12.461,5.048,23.744,13.199,31.909
        c8.152,8.163,19.418,13.215,31.861,13.215c12.444,0,23.706-5.052,31.862-13.215c8.151-8.165,13.195-19.448,13.195-31.909
        C94.827,36.96,89.783,25.68,81.632,17.512z M49.77,3.555c12.646,0,24.097,5.132,32.385,13.432
        C90.442,25.29,95.57,36.754,95.57,49.42c0,12.667-5.128,24.133-13.416,32.434c-8.288,8.3-19.738,13.432-32.385,13.432
        c-12.649,0-24.099-5.132-32.388-13.432C9.094,73.553,3.969,62.087,3.969,49.42c0-12.666,5.125-24.13,13.413-32.434
        C25.671,8.687,37.12,3.555,49.77,3.555z"/>
</svg>